# xmcd
#
# Track frame offsets:
#       150
#       15057
#       29507
#       42230
#       58307
#       71735
#       83497
#       97535
#       110547
#       125190
#       140122
#       152020
#
# Disc length: 2238 seconds
#
# Revision: 6
# Processed by: cddbd v1.5.2PL0 Copyright (c) Steve Scherf et al.
# Submitted via: FreeDbEdit v0.1
#
DISCID=9a08bc0c
DTITLE=George Strait - The Very Best of George Strait [CD1]
DYEAR=1900
DGENRE=Country
TTITLE0=All My Ex's Live in Texas
TTITLE1=You Look So Good in Love
TTITLE2=It Ain't Cool to Be Crazy About You
TTITLE3=Famous Last Words of a Fool
TTITLE4=A Fire I Can't Put Out
TTITLE5=An Ace in the Hole
TTITLE6=Ocean Front Property
TTITLE7=Let's Fall to Pieces Together
TTITLE8=Does Fort Worth Ever Cross Your Mind?
TTITLE9=You're Something Special to Me
TTITLE10=Fool Hearted Memory
TTITLE11=Baby Blue
EXTD=
EXTT0=
EXTT1=
EXTT2=
EXTT3=
EXTT4=
EXTT5=
EXTT6=
EXTT7=
EXTT8=
EXTT9=
EXTT10=
EXTT11=
PLAYORDER=
